<svg width="550" height="90" viewBox="0 0 1224.603 142.405" xmlns="http://www.w3.org/2000/svg">
<g id="svgGroup" stroke-linecap="round" fill-rule="evenodd" font-size="9pt" stroke="#ffffff" stroke-width="0.25mm" fill="none" style="stroke:#ffffff;stroke-width:0.25mm;fill:none"><path d="M 451.8 42.403 L 451.8 44.803 L 410.4 44.803 L 410.4 44.003 Q 410.4 38.003 406 34.003 Q 401.6 30.003 392.6 30.003 Q 383.8 30.003 379.1 32.603 A 13.411 13.411 0 0 0 376.962 34.046 Q 374.4 36.197 374.4 39.003 Q 374.4 44.256 380.458 46.86 A 18.537 18.537 0 0 0 380.8 47.003 Q 387.2 49.603 401.4 52.403 A 321.909 321.909 0 0 1 412.569 54.885 Q 417.787 56.149 422.239 57.452 A 141.139 141.139 0 0 1 428.7 59.503 Q 439.4 63.203 447.4 71.603 Q 455.4 80.003 455.6 94.403 Q 455.6 118.803 439.1 130.603 A 58.664 58.664 0 0 1 420.511 139.265 Q 409.231 142.403 395 142.403 A 155.428 155.428 0 0 1 376.271 141.348 Q 366.813 140.197 359.019 137.789 A 63.49 63.49 0 0 1 344.9 131.603 A 34.971 34.971 0 0 1 329.115 110.279 Q 327.33 103.987 327.052 96.298 A 79.895 79.895 0 0 1 327 93.403 L 368.8 93.403 A 31.119 31.119 0 0 0 369.138 98.171 Q 370.15 104.678 374.2 107.303 A 17.518 17.518 0 0 0 378.505 109.259 Q 382.737 110.586 388.923 110.772 A 68.937 68.937 0 0 0 391 110.803 A 64.823 64.823 0 0 0 396.663 110.57 Q 401.377 110.156 404.9 109.003 Q 410.4 107.203 410.4 101.603 A 6.96 6.96 0 0 0 407.451 95.858 Q 406.34 95.004 404.812 94.321 A 17.947 17.947 0 0 0 404.3 94.103 Q 398.2 91.603 384.4 88.803 Q 367.6 85.203 356.6 81.303 Q 345.6 77.403 337.4 68.403 A 30.259 30.259 0 0 1 330.451 55.057 Q 329.2 50.018 329.2 44.003 A 45.776 45.776 0 0 1 331.175 30.161 A 34.454 34.454 0 0 1 346.7 10.703 Q 362.286 1.173 385.249 0.131 A 126.851 126.851 0 0 1 391 0.003 A 107.03 107.03 0 0 1 409.478 1.507 Q 423.775 4.015 434.4 10.703 A 36.483 36.483 0 0 1 446.974 23.485 Q 451.594 31.574 451.8 42.403 Z M 1220.8 42.403 L 1220.8 44.803 L 1179.4 44.803 L 1179.4 44.003 Q 1179.4 38.003 1175 34.003 Q 1170.6 30.003 1161.6 30.003 Q 1152.8 30.003 1148.1 32.603 A 13.411 13.411 0 0 0 1145.962 34.046 Q 1143.4 36.197 1143.4 39.003 Q 1143.4 44.256 1149.458 46.86 A 18.537 18.537 0 0 0 1149.8 47.003 Q 1156.2 49.603 1170.4 52.403 A 321.909 321.909 0 0 1 1181.569 54.885 Q 1186.787 56.149 1191.239 57.452 A 141.139 141.139 0 0 1 1197.7 59.503 Q 1208.4 63.203 1216.4 71.603 Q 1224.4 80.003 1224.6 94.403 Q 1224.6 118.803 1208.1 130.603 A 58.664 58.664 0 0 1 1189.511 139.265 Q 1178.231 142.403 1164 142.403 A 155.428 155.428 0 0 1 1145.271 141.348 Q 1135.813 140.197 1128.019 137.789 A 63.49 63.49 0 0 1 1113.9 131.603 A 34.971 34.971 0 0 1 1098.115 110.279 Q 1096.33 103.987 1096.052 96.298 A 79.895 79.895 0 0 1 1096 93.403 L 1137.8 93.403 A 31.119 31.119 0 0 0 1138.138 98.171 Q 1139.15 104.678 1143.2 107.303 A 17.518 17.518 0 0 0 1147.505 109.259 Q 1151.737 110.586 1157.923 110.772 A 68.937 68.937 0 0 0 1160 110.803 A 64.823 64.823 0 0 0 1165.663 110.57 Q 1170.377 110.156 1173.9 109.003 Q 1179.4 107.203 1179.4 101.603 A 6.96 6.96 0 0 0 1176.451 95.858 Q 1175.34 95.004 1173.812 94.321 A 17.947 17.947 0 0 0 1173.3 94.103 Q 1167.2 91.603 1153.4 88.803 Q 1136.6 85.203 1125.6 81.303 Q 1114.6 77.403 1106.4 68.403 A 30.259 30.259 0 0 1 1099.451 55.057 Q 1098.2 50.018 1098.2 44.003 A 45.776 45.776 0 0 1 1100.175 30.161 A 34.454 34.454 0 0 1 1115.7 10.703 Q 1131.286 1.173 1154.249 0.131 A 126.851 126.851 0 0 1 1160 0.003 A 107.03 107.03 0 0 1 1178.478 1.507 Q 1192.775 4.015 1203.4 10.703 A 36.483 36.483 0 0 1 1215.974 23.485 Q 1220.594 31.574 1220.8 42.403 Z M 137 140.003 L 98.4 140.003 L 40.6 73.203 L 40.6 140.003 L 0 140.003 L 0 2.403 L 38.6 2.403 L 96.4 70.203 L 96.4 2.403 L 137 2.403 L 137 140.003 Z M 887.4 82.403 L 918 140.003 L 868.4 140.003 L 844 89.803 L 827.6 89.803 L 827.6 140.003 L 783.4 140.003 L 783.4 2.403 L 867.6 2.403 A 64.171 64.171 0 0 1 879.525 3.455 Q 886.796 4.83 892.713 8.001 A 40.463 40.463 0 0 1 892.9 8.103 Q 903.4 13.803 908.7 23.503 Q 914 33.203 914 44.603 Q 914 57.203 907.2 67.403 Q 900.4 77.603 887.4 82.403 Z M 763.2 37.603 L 718.2 37.603 L 718.2 140.003 L 674 140.003 L 674 37.603 L 628.8 37.603 L 628.8 2.403 L 763.2 2.403 L 763.2 37.603 Z M 256.618 1.962 A 111.831 111.831 0 0 0 235 0.003 A 129.431 129.431 0 0 0 227.012 0.243 Q 197.176 2.088 180.1 18.103 A 54.322 54.322 0 0 0 171.477 28.487 Q 165.398 37.985 162.78 50.515 A 101.214 101.214 0 0 0 160.8 71.203 A 119.336 119.336 0 0 0 160.942 77.077 Q 162.454 107.754 180.1 124.303 A 58.543 58.543 0 0 0 191.353 132.557 Q 201.007 138.022 213.392 140.454 A 112.263 112.263 0 0 0 235 142.403 Q 270.6 142.403 290 124.203 Q 303.11 111.903 307.361 92.023 A 99.624 99.624 0 0 0 309.4 71.203 A 118.225 118.225 0 0 0 309.286 65.973 Q 307.915 35.01 290 18.203 A 58.934 58.934 0 0 0 279.165 10.169 Q 269.316 4.466 256.618 1.962 Z M 567.618 1.962 A 111.831 111.831 0 0 0 546 0.003 A 129.431 129.431 0 0 0 538.012 0.243 Q 508.176 2.088 491.1 18.103 A 54.322 54.322 0 0 0 482.477 28.487 Q 476.398 37.985 473.78 50.515 A 101.214 101.214 0 0 0 471.8 71.203 A 119.336 119.336 0 0 0 471.942 77.077 Q 473.454 107.754 491.1 124.303 A 58.543 58.543 0 0 0 502.353 132.557 Q 512.007 138.022 524.392 140.454 A 112.263 112.263 0 0 0 546 142.403 Q 581.6 142.403 601 124.203 Q 614.11 111.903 618.361 92.023 A 99.624 99.624 0 0 0 620.4 71.203 A 118.225 118.225 0 0 0 620.286 65.973 Q 618.915 35.01 601 18.203 A 58.934 58.934 0 0 0 590.165 10.169 Q 580.316 4.466 567.618 1.962 Z M 1025.618 1.962 A 111.831 111.831 0 0 0 1004 0.003 A 129.431 129.431 0 0 0 996.012 0.243 Q 966.176 2.088 949.1 18.103 A 54.322 54.322 0 0 0 940.477 28.487 Q 934.398 37.985 931.78 50.515 A 101.214 101.214 0 0 0 929.8 71.203 A 119.336 119.336 0 0 0 929.942 77.077 Q 931.454 107.754 949.1 124.303 A 58.543 58.543 0 0 0 960.353 132.557 Q 970.007 138.022 982.392 140.454 A 112.263 112.263 0 0 0 1004 142.403 Q 1039.6 142.403 1059 124.203 Q 1072.11 111.903 1076.361 92.023 A 99.624 99.624 0 0 0 1078.4 71.203 A 118.225 118.225 0 0 0 1078.286 65.973 Q 1076.915 35.01 1059 18.203 A 58.934 58.934 0 0 0 1048.165 10.169 Q 1038.316 4.466 1025.618 1.962 Z M 206 64.803 L 206 77.603 Q 206 89.762 211.133 97.759 A 27.101 27.101 0 0 0 213.4 100.803 A 23.827 23.827 0 0 0 226.227 108.432 Q 230.23 109.403 235 109.403 A 37.544 37.544 0 0 0 243.597 108.477 Q 251.661 106.581 256.7 100.803 Q 263.812 92.648 264.18 79.098 A 55.064 55.064 0 0 0 264.2 77.603 L 264.2 64.803 A 46.009 46.009 0 0 0 263.252 55.181 Q 261.534 47.146 256.7 41.603 A 24.219 24.219 0 0 0 243.644 33.94 A 37.497 37.497 0 0 0 235 33.003 Q 222.589 33.003 215.372 39.572 A 23.245 23.245 0 0 0 213.4 41.603 A 29.236 29.236 0 0 0 207.32 53.54 Q 206.186 57.919 206.026 63.089 A 55.548 55.548 0 0 0 206 64.803 Z M 517 64.803 L 517 77.603 Q 517 89.762 522.133 97.759 A 27.101 27.101 0 0 0 524.4 100.803 A 23.827 23.827 0 0 0 537.227 108.432 Q 541.23 109.403 546 109.403 A 37.544 37.544 0 0 0 554.597 108.477 Q 562.661 106.581 567.7 100.803 Q 574.812 92.648 575.18 79.098 A 55.064 55.064 0 0 0 575.2 77.603 L 575.2 64.803 A 46.009 46.009 0 0 0 574.252 55.181 Q 572.534 47.146 567.7 41.603 A 24.219 24.219 0 0 0 554.644 33.94 A 37.497 37.497 0 0 0 546 33.003 Q 533.589 33.003 526.372 39.572 A 23.245 23.245 0 0 0 524.4 41.603 A 29.236 29.236 0 0 0 518.32 53.54 Q 517.186 57.919 517.026 63.089 A 55.548 55.548 0 0 0 517 64.803 Z M 975 64.803 L 975 77.603 Q 975 89.762 980.133 97.759 A 27.101 27.101 0 0 0 982.4 100.803 A 23.827 23.827 0 0 0 995.227 108.432 Q 999.23 109.403 1004 109.403 A 37.544 37.544 0 0 0 1012.597 108.477 Q 1020.661 106.581 1025.7 100.803 Q 1032.812 92.648 1033.18 79.098 A 55.064 55.064 0 0 0 1033.2 77.603 L 1033.2 64.803 A 46.009 46.009 0 0 0 1032.252 55.181 Q 1030.534 47.146 1025.7 41.603 A 24.219 24.219 0 0 0 1012.644 33.94 A 37.497 37.497 0 0 0 1004 33.003 Q 991.589 33.003 984.372 39.572 A 23.245 23.245 0 0 0 982.4 41.603 A 29.236 29.236 0 0 0 976.32 53.54 Q 975.186 57.919 975.026 63.089 A 55.548 55.548 0 0 0 975 64.803 Z M 856.6 33.803 L 827.6 33.803 L 827.6 59.203 L 856.6 59.203 A 11.789 11.789 0 0 0 865.23 55.674 A 14.155 14.155 0 0 0 865.4 55.503 A 12.544 12.544 0 0 0 869 46.424 A 16.343 16.343 0 0 0 869 46.403 A 13.307 13.307 0 0 0 868.182 41.665 A 11.959 11.959 0 0 0 865.4 37.403 A 11.949 11.949 0 0 0 856.762 33.803 A 14.917 14.917 0 0 0 856.6 33.803 Z" vector-effect="non-scaling-stroke"
stroke-opacity="0.3"
/></g>
</svg>