<svg width="700" height="90" viewBox="0 0 672.301 71.203" xmlns="http://www.w3.org/2000/svg"><g id="svgGroup" stroke-linecap="round" fill-rule="nonzero" font-size="9pt" stroke="#ffffff" stroke-width="0.25mm" fill="none" style="stroke:#ffffff;stroke-width:0.25mm;fill:none"><path d="M 77.8 70.001 L 77.8 1.201 L 137.3 1.201 L 137.3 17.701 L 99.9 17.701 L 99.9 27.201 L 131.9 27.201 L 131.9 43.001 L 99.9 43.001 L 99.9 53.501 L 138 53.501 L 138 70.001 L 77.8 70.001 Z M 233.3 70.001 L 233.3 1.201 L 292.8 1.201 L 292.8 17.701 L 255.4 17.701 L 255.4 27.201 L 287.4 27.201 L 287.4 43.001 L 255.4 43.001 L 255.4 53.501 L 293.5 53.501 L 293.5 70.001 L 233.3 70.001 Z M 670.4 21.201 L 670.4 22.401 L 649.7 22.401 L 649.7 22.001 A 6.681 6.681 0 0 0 649.042 19.019 A 6.726 6.726 0 0 0 647.5 17.001 A 6.825 6.825 0 0 0 645.135 15.634 Q 644.12 15.278 642.876 15.122 A 16.749 16.749 0 0 0 640.8 15.001 Q 636.4 15.001 634.05 16.301 A 6.705 6.705 0 0 0 632.981 17.023 Q 631.7 18.099 631.7 19.501 A 3.745 3.745 0 0 0 633.317 22.633 Q 633.913 23.079 634.729 23.43 A 9.27 9.27 0 0 0 634.9 23.501 Q 638.1 24.801 645.2 26.201 A 160.954 160.954 0 0 1 650.785 27.443 Q 653.394 28.075 655.619 28.726 A 70.569 70.569 0 0 1 658.85 29.751 Q 664.2 31.601 668.2 35.801 A 14.331 14.331 0 0 1 671.719 42.39 A 21.302 21.302 0 0 1 672.3 47.201 A 28.509 28.509 0 0 1 671.454 54.371 A 18.799 18.799 0 0 1 664.05 65.301 A 29.332 29.332 0 0 1 654.756 69.633 Q 650.878 70.711 646.303 71.048 A 58.598 58.598 0 0 1 642 71.201 A 77.714 77.714 0 0 1 632.636 70.674 Q 627.907 70.098 624.009 68.895 A 31.745 31.745 0 0 1 616.95 65.801 A 17.486 17.486 0 0 1 609.058 55.139 Q 608.165 51.993 608.026 48.149 A 39.947 39.947 0 0 1 608 46.701 L 628.9 46.701 Q 628.9 51.901 631.6 53.651 Q 634.048 55.238 638.962 55.386 A 34.469 34.469 0 0 0 640 55.401 Q 643.023 55.401 645.295 54.935 A 15.056 15.056 0 0 0 646.95 54.501 Q 649.439 53.687 649.675 51.316 A 5.188 5.188 0 0 0 649.7 50.801 Q 649.7 48.301 646.65 47.051 Q 644.333 46.102 639.793 45.065 A 130.934 130.934 0 0 0 636.7 44.401 A 162.485 162.485 0 0 1 630.922 43.059 Q 626.28 41.885 622.8 40.651 Q 617.3 38.701 613.2 34.201 A 15.13 15.13 0 0 1 609.726 27.529 Q 609.149 25.206 609.104 22.468 A 28.378 28.378 0 0 1 609.1 22.001 A 22.888 22.888 0 0 1 610.087 15.081 A 17.227 17.227 0 0 1 617.85 5.351 Q 625.643 0.586 637.124 0.065 A 63.426 63.426 0 0 1 640 0.001 Q 653.2 0.001 661.7 5.351 A 18.242 18.242 0 0 1 667.987 11.742 Q 670.297 15.787 670.4 21.201 Z M 218.5 70.001 L 199.2 70.001 L 170.3 36.601 L 170.3 70.001 L 150 70.001 L 150 1.201 L 169.3 1.201 L 198.2 35.101 L 198.2 1.201 L 218.5 1.201 L 218.5 70.001 Z M 477 29.501 L 455.9 29.501 Q 455.9 23.501 452.75 20.001 A 10.238 10.238 0 0 0 447.244 16.86 A 15.585 15.585 0 0 0 443.8 16.501 Q 438.692 16.501 435.648 18.942 A 9.709 9.709 0 0 0 433.95 20.701 A 14.295 14.295 0 0 0 431.742 25.185 Q 431.153 27.132 430.932 29.464 A 31.192 31.192 0 0 0 430.8 32.401 L 430.8 38.801 Q 430.8 44.167 432.456 47.876 A 13.655 13.655 0 0 0 433.95 50.451 A 10.127 10.127 0 0 0 440.122 54.346 A 16.038 16.038 0 0 0 443.6 54.701 Q 448.075 54.701 451.034 53.088 A 9.852 9.852 0 0 0 453.3 51.401 Q 456.434 48.267 456.592 42.697 A 21.094 21.094 0 0 0 456.6 42.101 L 477 42.101 A 36.717 36.717 0 0 1 476.024 50.83 A 24.143 24.143 0 0 1 468.35 63.701 Q 461.052 70.029 448.663 71.018 A 59.894 59.894 0 0 1 443.9 71.201 Q 431.617 71.201 423.499 66.818 A 26.978 26.978 0 0 1 417.25 62.201 Q 409.48 54.475 408.381 40.409 A 61.736 61.736 0 0 1 408.2 35.601 Q 408.2 18.001 417.25 9.001 Q 424.952 1.342 438.847 0.201 A 61.783 61.783 0 0 1 443.9 0.001 A 49.621 49.621 0 0 1 453.662 0.905 Q 462.259 2.631 468.1 7.651 Q 477 15.301 477 29.501 Z M 305.5 70.001 L 305.5 1.201 L 361.1 1.201 L 361.1 17.701 L 327.6 17.701 L 327.6 29.501 L 356.4 29.501 L 356.4 45.301 L 327.6 45.301 L 327.6 70.001 L 305.5 70.001 Z M 53.3 34.101 L 53.3 34.501 A 19.405 19.405 0 0 1 59.633 37.075 Q 64.602 40.321 65.923 46.687 A 24.706 24.706 0 0 1 66.4 51.701 A 18.683 18.683 0 0 1 65.567 57.362 A 16.353 16.353 0 0 1 63.75 61.251 Q 61.1 65.401 56.5 67.701 A 22.051 22.051 0 0 1 47.254 69.987 A 25.815 25.815 0 0 1 46.4 70.001 L 0 70.001 L 0 1.201 L 45.8 1.201 Q 51 1.201 55.35 3.351 Q 59.7 5.501 62.25 9.401 Q 64.8 13.301 64.8 18.101 Q 64.8 29.895 54.882 33.583 A 21.771 21.771 0 0 1 53.3 34.101 Z M 22.1 42.201 L 22.1 54.001 L 38.9 54.001 A 5.109 5.109 0 0 0 40.884 53.626 A 4.795 4.795 0 0 0 42.55 52.451 A 5.328 5.328 0 0 0 43.987 49.026 A 6.978 6.978 0 0 0 44 48.601 L 44 47.601 A 6.008 6.008 0 0 0 43.681 45.61 A 5.207 5.207 0 0 0 42.55 43.751 A 4.756 4.756 0 0 0 39.105 42.205 A 6.099 6.099 0 0 0 38.9 42.201 L 22.1 42.201 Z M 22.1 16.301 L 22.1 28.001 L 37.3 28.001 A 5.109 5.109 0 0 0 39.284 27.626 A 4.795 4.795 0 0 0 40.95 26.451 A 5.328 5.328 0 0 0 42.387 23.026 A 6.978 6.978 0 0 0 42.4 22.601 L 42.4 21.601 Q 42.4 19.401 40.9 17.851 Q 39.4 16.301 37.3 16.301 L 22.1 16.301 Z M 562 0.001 Q 579.8 0.001 589.5 9.101 Q 599.2 18.201 599.2 35.601 Q 599.2 53.001 589.5 62.101 Q 580.904 70.166 565.945 71.084 A 64.457 64.457 0 0 1 562 71.201 Q 548.872 71.201 540.177 66.278 A 29.271 29.271 0 0 1 534.55 62.151 A 28.907 28.907 0 0 1 526.617 48.863 Q 524.9 42.984 524.9 35.601 Q 524.9 22.585 530.239 14.243 A 27.161 27.161 0 0 1 534.55 9.051 A 31.409 31.409 0 0 1 547.322 1.924 Q 553.795 0.001 562 0.001 Z M 547.5 32.401 L 547.5 38.801 A 23.356 23.356 0 0 0 547.957 43.563 Q 548.583 46.569 550.066 48.88 A 13.55 13.55 0 0 0 551.2 50.401 Q 554.881 54.679 561.926 54.701 A 23.373 23.373 0 0 0 562 54.701 A 18.772 18.772 0 0 0 566.299 54.238 Q 570.33 53.29 572.85 50.401 Q 576.6 46.101 576.6 38.801 L 576.6 32.401 Q 576.6 25.101 572.85 20.801 A 12.11 12.11 0 0 0 566.322 16.97 A 18.749 18.749 0 0 0 562 16.501 A 18.702 18.702 0 0 0 557.707 16.964 Q 554.44 17.734 552.186 19.786 A 11.622 11.622 0 0 0 551.2 20.801 Q 547.72 24.846 547.513 31.545 A 27.774 27.774 0 0 0 547.5 32.401 Z M 395.3 70.001 L 373.2 70.001 L 373.2 1.201 L 395.3 1.201 L 395.3 70.001 Z M 512 70.001 L 489.9 70.001 L 489.9 1.201 L 512 1.201 L 512 70.001 Z" vector-effect="non-scaling-stroke" stroke-opacity="0.3" /></g></svg>