<svg width="550" height="90" viewBox="0 0 606.703 71.203" xmlns="http://www.w3.org/2000/svg"><g id="svgGroup" stroke-linecap="round" fill-rule="nonzero" font-size="9pt" stroke="#ffffff" stroke-width="0.25mm" fill="none" style="stroke:#ffffff;stroke-width:0.25mm;fill:none"><path d="M 232.501 70.001 L 213.201 70.001 L 184.301 36.601 L 184.301 70.001 L 164.001 70.001 L 164.001 1.201 L 183.301 1.201 L 212.201 35.101 L 212.201 1.201 L 232.501 1.201 L 232.501 70.001 Z M 68.801 29.501 L 47.701 29.501 Q 47.701 23.501 44.551 20.001 A 10.238 10.238 0 0 0 39.045 16.86 A 15.585 15.585 0 0 0 35.601 16.501 Q 30.494 16.501 27.449 18.942 A 9.709 9.709 0 0 0 25.751 20.701 A 14.295 14.295 0 0 0 23.543 25.185 Q 22.955 27.132 22.734 29.464 A 31.192 31.192 0 0 0 22.601 32.401 L 22.601 38.801 Q 22.601 44.167 24.257 47.876 A 13.655 13.655 0 0 0 25.751 50.451 A 10.127 10.127 0 0 0 31.923 54.346 A 16.038 16.038 0 0 0 35.401 54.701 Q 39.876 54.701 42.836 53.088 A 9.852 9.852 0 0 0 45.101 51.401 Q 48.236 48.267 48.393 42.697 A 21.094 21.094 0 0 0 48.401 42.101 L 68.801 42.101 A 36.717 36.717 0 0 1 67.825 50.83 A 24.143 24.143 0 0 1 60.151 63.701 Q 52.853 70.029 40.464 71.018 A 59.894 59.894 0 0 1 35.701 71.201 Q 23.419 71.201 15.3 66.818 A 26.978 26.978 0 0 1 9.051 62.201 Q 1.282 54.475 0.182 40.409 A 61.736 61.736 0 0 1 0.001 35.601 Q 0.001 18.001 9.051 9.001 Q 16.753 1.342 30.649 0.201 A 61.783 61.783 0 0 1 35.701 0.001 A 49.621 49.621 0 0 1 45.464 0.905 Q 54.061 2.631 59.901 7.651 Q 68.801 15.301 68.801 29.501 Z M 454.601 29.501 L 433.501 29.501 Q 433.501 23.501 430.351 20.001 A 10.238 10.238 0 0 0 424.845 16.86 A 15.585 15.585 0 0 0 421.401 16.501 Q 416.294 16.501 413.249 18.942 A 9.709 9.709 0 0 0 411.551 20.701 A 14.295 14.295 0 0 0 409.343 25.185 Q 408.755 27.132 408.534 29.464 A 31.192 31.192 0 0 0 408.401 32.401 L 408.401 38.801 Q 408.401 44.167 410.057 47.876 A 13.655 13.655 0 0 0 411.551 50.451 A 10.127 10.127 0 0 0 417.723 54.346 A 16.038 16.038 0 0 0 421.201 54.701 Q 425.676 54.701 428.636 53.088 A 9.852 9.852 0 0 0 430.901 51.401 Q 434.036 48.267 434.193 42.697 A 21.094 21.094 0 0 0 434.201 42.101 L 454.601 42.101 A 36.717 36.717 0 0 1 453.625 50.83 A 24.143 24.143 0 0 1 445.951 63.701 Q 438.653 70.029 426.264 71.018 A 59.894 59.894 0 0 1 421.501 71.201 Q 409.219 71.201 401.1 66.818 A 26.978 26.978 0 0 1 394.851 62.201 Q 387.082 54.475 385.982 40.409 A 61.736 61.736 0 0 1 385.801 35.601 Q 385.801 18.001 394.851 9.001 Q 402.553 1.342 416.449 0.201 A 61.783 61.783 0 0 1 421.501 0.001 A 49.621 49.621 0 0 1 431.264 0.905 Q 439.861 2.631 445.701 7.651 Q 454.601 15.301 454.601 29.501 Z M 309.401 18.801 L 286.901 18.801 L 286.901 70.001 L 264.801 70.001 L 264.801 18.801 L 242.201 18.801 L 242.201 1.201 L 309.401 1.201 L 309.401 18.801 Z M 528.601 18.801 L 506.101 18.801 L 506.101 70.001 L 484.001 70.001 L 484.001 18.801 L 461.401 18.801 L 461.401 1.201 L 528.601 1.201 L 528.601 18.801 Z M 382.201 70.001 L 358.801 70.001 L 355.901 60.301 L 331.801 60.301 L 328.901 70.001 L 306.301 70.001 L 331.401 1.201 L 357.101 1.201 L 382.201 70.001 Z M 343.701 20.401 L 336.401 44.901 L 351.301 44.901 L 344.101 20.401 L 343.701 20.401 Z M 114.901 0.001 Q 132.701 0.001 142.401 9.101 Q 152.101 18.201 152.101 35.601 Q 152.101 53.001 142.401 62.101 Q 133.805 70.166 118.847 71.084 A 64.457 64.457 0 0 1 114.901 71.201 Q 101.773 71.201 93.078 66.278 A 29.271 29.271 0 0 1 87.451 62.151 A 28.907 28.907 0 0 1 79.519 48.863 Q 77.801 42.984 77.801 35.601 Q 77.801 22.585 83.14 14.243 A 27.161 27.161 0 0 1 87.451 9.051 A 31.409 31.409 0 0 1 100.223 1.924 Q 106.697 0.001 114.901 0.001 Z M 100.401 32.401 L 100.401 38.801 A 23.356 23.356 0 0 0 100.859 43.563 Q 101.485 46.569 102.968 48.88 A 13.55 13.55 0 0 0 104.101 50.401 Q 107.782 54.679 114.827 54.701 A 23.373 23.373 0 0 0 114.901 54.701 A 18.772 18.772 0 0 0 119.2 54.238 Q 123.232 53.29 125.751 50.401 Q 129.501 46.101 129.501 38.801 L 129.501 32.401 Q 129.501 25.101 125.751 20.801 A 12.11 12.11 0 0 0 119.223 16.97 A 18.749 18.749 0 0 0 114.901 16.501 A 18.702 18.702 0 0 0 110.608 16.964 Q 107.341 17.734 105.087 19.786 A 11.622 11.622 0 0 0 104.101 20.801 Q 100.621 24.846 100.414 31.545 A 27.774 27.774 0 0 0 100.401 32.401 Z M 569.501 0.001 Q 587.301 0.001 597.001 9.101 Q 606.701 18.201 606.701 35.601 Q 606.701 53.001 597.001 62.101 Q 588.405 70.166 573.447 71.084 A 64.457 64.457 0 0 1 569.501 71.201 Q 556.373 71.201 547.678 66.278 A 29.271 29.271 0 0 1 542.051 62.151 A 28.907 28.907 0 0 1 534.119 48.863 Q 532.401 42.984 532.401 35.601 Q 532.401 22.585 537.74 14.243 A 27.161 27.161 0 0 1 542.051 9.051 A 31.409 31.409 0 0 1 554.823 1.924 Q 561.297 0.001 569.501 0.001 Z M 555.001 32.401 L 555.001 38.801 A 23.356 23.356 0 0 0 555.459 43.563 Q 556.085 46.569 557.568 48.88 A 13.55 13.55 0 0 0 558.701 50.401 Q 562.382 54.679 569.427 54.701 A 23.373 23.373 0 0 0 569.501 54.701 A 18.772 18.772 0 0 0 573.8 54.238 Q 577.832 53.29 580.351 50.401 Q 584.101 46.101 584.101 38.801 L 584.101 32.401 Q 584.101 25.101 580.351 20.801 A 12.11 12.11 0 0 0 573.823 16.97 A 18.749 18.749 0 0 0 569.501 16.501 A 18.702 18.702 0 0 0 565.208 16.964 Q 561.941 17.734 559.687 19.786 A 11.622 11.622 0 0 0 558.701 20.801 Q 555.221 24.846 555.014 31.545 A 27.774 27.774 0 0 0 555.001 32.401 Z" vector-effect="non-scaling-stroke" stroke-opacity="0.3"/></g></svg>