<svg  width="650" height="100" viewBox="0 0 842.603 166.203" xmlns="http://www.w3.org/2000/svg"><g id="svgGroup" stroke-linecap="round" fill-rule="evenodd" font-size="9pt" stroke="#ffffff" stroke-width="0.25mm" fill="none" style="stroke:#ffffff;stroke-width:0.25mm;fill:none"><path d="M 0 140.003 L 0 2.403 L 119 2.403 L 119 35.403 L 44.2 35.403 L 44.2 54.403 L 108.2 54.403 L 108.2 86.003 L 44.2 86.003 L 44.2 107.003 L 120.4 107.003 L 120.4 140.003 L 0 140.003 Z M 311 84.603 L 311 2.403 L 355.2 2.403 L 355.2 84.003 A 35.226 35.226 0 0 0 356.001 91.733 Q 357.269 97.375 360.547 101.494 A 22.067 22.067 0 0 0 361.4 102.503 A 19.953 19.953 0 0 0 371.489 108.472 Q 374.732 109.315 378.594 109.394 A 39.385 39.385 0 0 0 379.4 109.403 A 31.764 31.764 0 0 0 386.707 108.613 Q 392.282 107.295 396.131 103.782 A 19.8 19.8 0 0 0 397.5 102.403 A 23.951 23.951 0 0 0 403.122 91.01 A 34.445 34.445 0 0 0 403.8 84.003 L 403.8 2.403 L 448 2.403 L 448 84.603 A 71.189 71.189 0 0 1 445.991 102.037 A 47.36 47.36 0 0 1 430.2 127.603 A 58.458 58.458 0 0 1 410.217 138.226 Q 401.611 140.95 391.204 141.898 A 128.103 128.103 0 0 1 379.6 142.403 Q 356.728 142.403 341.101 135.206 A 55.402 55.402 0 0 1 328.9 127.603 A 47.85 47.85 0 0 1 312.456 99.596 A 73.133 73.133 0 0 1 311 84.603 Z M 253.2 134.403 L 284.6 166.203 L 232 166.203 L 210.8 142.403 Q 184.768 141.954 167.745 131.712 A 57.805 57.805 0 0 1 157.3 123.703 A 58.136 58.136 0 0 1 141.99 97.541 Q 138.6 85.849 138.6 71.203 A 101.214 101.214 0 0 1 140.58 50.515 Q 143.198 37.985 149.277 28.487 A 54.322 54.322 0 0 1 157.9 18.103 Q 174.976 2.088 204.812 0.243 A 129.431 129.431 0 0 1 212.8 0.003 A 111.831 111.831 0 0 1 234.418 1.962 Q 247.116 4.466 256.965 10.169 A 58.934 58.934 0 0 1 267.8 18.203 Q 285.715 35.01 287.086 65.973 A 118.225 118.225 0 0 1 287.2 71.203 A 102.687 102.687 0 0 1 285.778 88.769 Q 283.683 100.831 278.5 110.303 Q 269.8 126.203 253.2 134.403 Z M 676.6 47.603 L 676.6 50.203 Q 676.6 63.003 671 73.403 Q 665.4 83.803 655.4 89.703 A 42.673 42.673 0 0 1 637.302 95.395 A 52.366 52.366 0 0 1 632.6 95.603 L 599.6 95.603 L 599.6 140.003 L 555.4 140.003 L 555.4 2.403 L 632.6 2.403 A 47.365 47.365 0 0 1 646.289 4.322 A 41.162 41.162 0 0 1 655.4 8.303 Q 665.4 14.203 671 24.503 A 46.457 46.457 0 0 1 676.463 43.664 A 55.992 55.992 0 0 1 676.6 47.603 Z M 789.818 1.962 A 111.831 111.831 0 0 0 768.2 0.003 A 129.431 129.431 0 0 0 760.212 0.243 Q 730.376 2.088 713.3 18.103 A 54.322 54.322 0 0 0 704.677 28.487 Q 698.598 37.985 695.98 50.515 A 101.214 101.214 0 0 0 694 71.203 A 119.336 119.336 0 0 0 694.142 77.077 Q 695.654 107.754 713.3 124.303 A 58.543 58.543 0 0 0 724.553 132.557 Q 734.207 138.022 746.592 140.454 A 112.263 112.263 0 0 0 768.2 142.403 Q 803.8 142.403 823.2 124.203 Q 836.31 111.903 840.561 92.023 A 99.624 99.624 0 0 0 842.6 71.203 A 118.225 118.225 0 0 0 842.486 65.973 Q 841.115 35.01 823.2 18.203 A 58.934 58.934 0 0 0 812.365 10.169 Q 802.516 4.466 789.818 1.962 Z M 523.8 140.003 L 479.6 140.003 L 479.6 2.403 L 523.8 2.403 L 523.8 140.003 Z M 183.8 64.803 L 183.8 77.603 Q 183.8 89.762 188.933 97.759 A 27.101 27.101 0 0 0 191.2 100.803 A 23.827 23.827 0 0 0 204.027 108.432 Q 208.03 109.403 212.8 109.403 A 37.544 37.544 0 0 0 221.397 108.477 Q 229.461 106.581 234.5 100.803 Q 241.612 92.648 241.98 79.098 A 55.064 55.064 0 0 0 242 77.603 L 242 64.803 A 46.009 46.009 0 0 0 241.052 55.181 Q 239.334 47.146 234.5 41.603 A 24.219 24.219 0 0 0 221.444 33.94 A 37.497 37.497 0 0 0 212.8 33.003 Q 200.389 33.003 193.172 39.572 A 23.245 23.245 0 0 0 191.2 41.603 A 29.236 29.236 0 0 0 185.12 53.54 Q 183.986 57.919 183.826 63.089 A 55.548 55.548 0 0 0 183.8 64.803 Z M 739.2 64.803 L 739.2 77.603 Q 739.2 89.762 744.333 97.759 A 27.101 27.101 0 0 0 746.6 100.803 A 23.827 23.827 0 0 0 759.427 108.432 Q 763.43 109.403 768.2 109.403 A 37.544 37.544 0 0 0 776.797 108.477 Q 784.861 106.581 789.9 100.803 Q 797.012 92.648 797.38 79.098 A 55.064 55.064 0 0 0 797.4 77.603 L 797.4 64.803 A 46.009 46.009 0 0 0 796.452 55.181 Q 794.734 47.146 789.9 41.603 A 24.219 24.219 0 0 0 776.844 33.94 A 37.497 37.497 0 0 0 768.2 33.003 Q 755.789 33.003 748.572 39.572 A 23.245 23.245 0 0 0 746.6 41.603 A 29.236 29.236 0 0 0 740.52 53.54 Q 739.386 57.919 739.226 63.089 A 55.548 55.548 0 0 0 739.2 64.803 Z M 599.6 35.003 L 599.6 63.403 L 617.8 63.403 A 21.649 21.649 0 0 0 621.787 63.06 Q 625.88 62.292 628.3 59.803 A 11.994 11.994 0 0 0 631.384 53.968 A 17.865 17.865 0 0 0 631.8 50.003 L 631.8 48.403 Q 631.8 42.003 628.3 38.503 Q 624.8 35.003 617.8 35.003 L 599.6 35.003 Z" vector-effect="non-scaling-stroke" stroke-opacity="0.3"/></g></svg>