<svg width="520" height="80" viewBox="0 00 1203.003 142.405" xmlns="http://www.w3.org/2000/svg"><g id="svgGroup" stroke-linecap="round" fill-rule="evenodd" font-size="9pt" stroke="#ffffff" stroke-width="0.25mm" fill="none" style="stroke:#ffffff;stroke-width:0.25mm;fill:none"><path d="M 150.6 140.003 L 150.6 2.403 L 269.6 2.403 L 269.6 35.403 L 194.8 35.403 L 194.8 54.403 L 258.8 54.403 L 258.8 86.003 L 194.8 86.003 L 194.8 107.003 L 271 107.003 L 271 140.003 L 150.6 140.003 Z M 124.8 42.403 L 124.8 44.803 L 83.4 44.803 L 83.4 44.003 Q 83.4 38.003 79 34.003 Q 74.6 30.003 65.6 30.003 Q 56.8 30.003 52.1 32.603 A 13.411 13.411 0 0 0 49.962 34.046 Q 47.4 36.197 47.4 39.003 Q 47.4 44.256 53.458 46.86 A 18.537 18.537 0 0 0 53.8 47.003 Q 60.2 49.603 74.4 52.403 A 321.909 321.909 0 0 1 85.569 54.885 Q 90.787 56.149 95.239 57.452 A 141.139 141.139 0 0 1 101.7 59.503 Q 112.4 63.203 120.4 71.603 Q 128.4 80.003 128.6 94.403 Q 128.6 118.803 112.1 130.603 A 58.664 58.664 0 0 1 93.511 139.265 Q 82.231 142.403 68 142.403 A 155.428 155.428 0 0 1 49.271 141.348 Q 39.813 140.197 32.019 137.789 A 63.49 63.49 0 0 1 17.9 131.603 A 34.971 34.971 0 0 1 2.115 110.279 Q 0.33 103.987 0.052 96.298 A 79.895 79.895 0 0 1 0 93.403 L 41.8 93.403 A 31.119 31.119 0 0 0 42.138 98.171 Q 43.15 104.678 47.2 107.303 A 17.518 17.518 0 0 0 51.505 109.259 Q 55.737 110.586 61.923 110.772 A 68.937 68.937 0 0 0 64 110.803 A 64.823 64.823 0 0 0 69.663 110.57 Q 74.377 110.156 77.9 109.003 Q 83.4 107.203 83.4 101.603 A 6.96 6.96 0 0 0 80.451 95.858 Q 79.34 95.004 77.812 94.321 A 17.947 17.947 0 0 0 77.3 94.103 Q 71.2 91.603 57.4 88.803 Q 40.6 85.203 29.6 81.303 Q 18.6 77.403 10.4 68.403 A 30.259 30.259 0 0 1 3.451 55.057 Q 2.2 50.018 2.2 44.003 A 45.776 45.776 0 0 1 4.175 30.161 A 34.454 34.454 0 0 1 19.7 10.703 Q 35.286 1.173 58.249 0.131 A 126.851 126.851 0 0 1 64 0.003 A 107.03 107.03 0 0 1 82.478 1.507 Q 96.775 4.015 107.4 10.703 A 36.483 36.483 0 0 1 119.974 23.485 Q 124.594 31.574 124.8 42.403 Z M 1199.2 42.403 L 1199.2 44.803 L 1157.8 44.803 L 1157.8 44.003 Q 1157.8 38.003 1153.4 34.003 Q 1149 30.003 1140 30.003 Q 1131.2 30.003 1126.5 32.603 A 13.411 13.411 0 0 0 1124.362 34.046 Q 1121.8 36.197 1121.8 39.003 Q 1121.8 44.256 1127.858 46.86 A 18.537 18.537 0 0 0 1128.2 47.003 Q 1134.6 49.603 1148.8 52.403 A 321.909 321.909 0 0 1 1159.969 54.885 Q 1165.187 56.149 1169.639 57.452 A 141.139 141.139 0 0 1 1176.1 59.503 Q 1186.8 63.203 1194.8 71.603 Q 1202.8 80.003 1203 94.403 Q 1203 118.803 1186.5 130.603 A 58.664 58.664 0 0 1 1167.911 139.265 Q 1156.631 142.403 1142.4 142.403 A 155.428 155.428 0 0 1 1123.671 141.348 Q 1114.213 140.197 1106.419 137.789 A 63.49 63.49 0 0 1 1092.3 131.603 A 34.971 34.971 0 0 1 1076.515 110.279 Q 1074.73 103.987 1074.452 96.298 A 79.895 79.895 0 0 1 1074.4 93.403 L 1116.2 93.403 A 31.119 31.119 0 0 0 1116.538 98.171 Q 1117.55 104.678 1121.6 107.303 A 17.518 17.518 0 0 0 1125.905 109.259 Q 1130.137 110.586 1136.323 110.772 A 68.937 68.937 0 0 0 1138.4 110.803 A 64.823 64.823 0 0 0 1144.063 110.57 Q 1148.777 110.156 1152.3 109.003 Q 1157.8 107.203 1157.8 101.603 A 6.96 6.96 0 0 0 1154.851 95.858 Q 1153.74 95.004 1152.212 94.321 A 17.947 17.947 0 0 0 1151.7 94.103 Q 1145.6 91.603 1131.8 88.803 Q 1115 85.203 1104 81.303 Q 1093 77.403 1084.8 68.403 A 30.259 30.259 0 0 1 1077.851 55.057 Q 1076.6 50.018 1076.6 44.003 A 45.776 45.776 0 0 1 1078.575 30.161 A 34.454 34.454 0 0 1 1094.1 10.703 Q 1109.686 1.173 1132.649 0.131 A 126.851 126.851 0 0 1 1138.4 0.003 A 107.03 107.03 0 0 1 1156.878 1.507 Q 1171.175 4.015 1181.8 10.703 A 36.483 36.483 0 0 1 1194.374 23.485 Q 1198.994 31.574 1199.2 42.403 Z M 812.4 59.003 L 770.2 59.003 Q 770.2 48.735 765.588 42.128 A 21.99 21.99 0 0 0 763.9 40.003 A 20.476 20.476 0 0 0 752.887 33.721 A 31.17 31.17 0 0 0 746 33.003 Q 732.6 33.003 726.3 41.403 A 28.591 28.591 0 0 0 721.884 50.37 Q 720 56.599 720 64.803 L 720 77.603 A 56.183 56.183 0 0 0 720.711 86.835 Q 722.116 95.258 726.3 100.903 A 20.254 20.254 0 0 0 738.644 108.692 A 32.076 32.076 0 0 0 745.6 109.403 A 39.688 39.688 0 0 0 752.995 108.758 Q 760.463 107.34 765 102.803 A 21.548 21.548 0 0 0 770.552 92.908 Q 771.6 88.984 771.6 84.203 L 812.4 84.203 A 73.433 73.433 0 0 1 810.448 101.66 A 48.286 48.286 0 0 1 795.1 127.403 Q 780.503 140.059 755.726 142.036 A 119.789 119.789 0 0 1 746.2 142.403 A 109.948 109.948 0 0 1 725.87 140.645 Q 705.344 136.778 692.9 124.403 Q 677.361 108.949 675.162 80.818 A 123.471 123.471 0 0 1 674.8 71.203 A 109.199 109.199 0 0 1 676.568 50.882 Q 678.747 39.388 683.615 30.449 A 53.553 53.553 0 0 1 692.9 18.003 A 57.531 57.531 0 0 1 716.534 4.091 Q 725.396 1.28 736.095 0.402 A 123.565 123.565 0 0 1 746.2 0.003 A 99.241 99.241 0 0 1 765.725 1.811 Q 782.919 5.262 794.6 15.303 A 49.674 49.674 0 0 1 810.953 43.871 A 75.035 75.035 0 0 1 812.4 59.003 Z M 535.8 140.003 L 484.6 140.003 L 435.8 2.403 L 483 2.403 L 510.6 94.403 L 511.4 94.403 L 539.2 2.403 L 584.4 2.403 L 535.8 140.003 Z M 399 82.403 L 429.6 140.003 L 380 140.003 L 355.6 89.803 L 339.2 89.803 L 339.2 140.003 L 295 140.003 L 295 2.403 L 379.2 2.403 A 64.171 64.171 0 0 1 391.125 3.455 Q 398.396 4.83 404.313 8.001 A 40.463 40.463 0 0 1 404.5 8.103 Q 415 13.803 420.3 23.503 Q 425.6 33.203 425.6 44.603 Q 425.6 57.203 418.8 67.403 Q 412 77.603 399 82.403 Z M 1004.018 1.962 A 111.831 111.831 0 0 0 982.4 0.003 A 129.431 129.431 0 0 0 974.412 0.243 Q 944.576 2.088 927.5 18.103 A 54.322 54.322 0 0 0 918.877 28.487 Q 912.798 37.985 910.18 50.515 A 101.214 101.214 0 0 0 908.2 71.203 A 119.336 119.336 0 0 0 908.342 77.077 Q 909.854 107.754 927.5 124.303 A 58.543 58.543 0 0 0 938.753 132.557 Q 948.407 138.022 960.792 140.454 A 112.263 112.263 0 0 0 982.4 142.403 Q 1018 142.403 1037.4 124.203 Q 1050.51 111.903 1054.761 92.023 A 99.624 99.624 0 0 0 1056.8 71.203 A 118.225 118.225 0 0 0 1056.686 65.973 Q 1055.315 35.01 1037.4 18.203 A 58.934 58.934 0 0 0 1026.565 10.169 Q 1016.716 4.466 1004.018 1.962 Z M 649 140.003 L 604.8 140.003 L 604.8 2.403 L 649 2.403 L 649 140.003 Z M 882.4 140.003 L 838.2 140.003 L 838.2 2.403 L 882.4 2.403 L 882.4 140.003 Z M 953.4 64.803 L 953.4 77.603 Q 953.4 89.762 958.533 97.759 A 27.101 27.101 0 0 0 960.8 100.803 A 23.827 23.827 0 0 0 973.627 108.432 Q 977.63 109.403 982.4 109.403 A 37.544 37.544 0 0 0 990.997 108.477 Q 999.061 106.581 1004.1 100.803 Q 1011.212 92.648 1011.58 79.098 A 55.064 55.064 0 0 0 1011.6 77.603 L 1011.6 64.803 A 46.009 46.009 0 0 0 1010.652 55.181 Q 1008.934 47.146 1004.1 41.603 A 24.219 24.219 0 0 0 991.044 33.94 A 37.497 37.497 0 0 0 982.4 33.003 Q 969.989 33.003 962.772 39.572 A 23.245 23.245 0 0 0 960.8 41.603 A 29.236 29.236 0 0 0 954.72 53.54 Q 953.586 57.919 953.426 63.089 A 55.548 55.548 0 0 0 953.4 64.803 Z M 368.2 33.803 L 339.2 33.803 L 339.2 59.203 L 368.2 59.203 A 11.789 11.789 0 0 0 376.83 55.674 A 14.155 14.155 0 0 0 377 55.503 A 12.544 12.544 0 0 0 380.6 46.424 A 16.343 16.343 0 0 0 380.6 46.403 A 13.307 13.307 0 0 0 379.782 41.665 A 11.959 11.959 0 0 0 377 37.403 A 11.949 11.949 0 0 0 368.362 33.803 A 14.917 14.917 0 0 0 368.2 33.803 Z" vector-effect="non-scaling-stroke" stroke-opacity="0.3"/></g></svg>