<svg width="920" height="80" viewBox="0 0 1554.403 142.405" xmlns="http://www.w3.org/2000/svg"><g id="svgGroup" stroke-linecap="round" fill-rule="evenodd" font-size="9pt" stroke="#ffffff" stroke-width="0.25mm" fill="none" style="stroke:#ffffff;stroke-width:0.25mm;fill:none"><path d="M 827.6 140.003 L 783.8 140.003 L 783.8 90.403 A 261.972 261.972 0 0 1 784.457 72.108 A 284.902 284.902 0 0 1 784.5 71.503 A 486.983 486.983 0 0 1 785.039 64.664 Q 785.27 61.996 785.51 59.63 A 230.388 230.388 0 0 1 786 55.203 A 3955.529 3955.529 0 0 0 786.279 52.896 Q 786.817 48.438 786.987 46.916 A 111.977 111.977 0 0 0 787 46.803 L 786.2 46.803 L 760.8 140.003 L 726.2 140.003 L 700.6 47.003 L 699.8 47.003 Q 699.994 48.748 700.846 54.912 A 1707.439 1707.439 0 0 0 700.9 55.303 A 190.611 190.611 0 0 1 701.344 58.753 Q 701.99 64.141 702.581 71.272 A 517.065 517.065 0 0 1 702.6 71.503 A 230.597 230.597 0 0 1 703.399 89.827 A 212.154 212.154 0 0 1 703.4 90.403 L 703.4 140.003 L 662.8 140.003 L 662.8 2.403 L 725.2 2.403 L 746 81.803 L 746.8 81.803 L 767.4 2.403 L 827.6 2.403 L 827.6 140.003 Z M 154.6 140.003 L 154.6 2.403 L 273.6 2.403 L 273.6 35.403 L 198.8 35.403 L 198.8 54.403 L 262.8 54.403 L 262.8 86.003 L 198.8 86.003 L 198.8 107.003 L 275 107.003 L 275 140.003 L 154.6 140.003 Z M 417.6 42.403 L 417.6 44.803 L 376.2 44.803 L 376.2 44.003 Q 376.2 38.003 371.8 34.003 Q 367.4 30.003 358.4 30.003 Q 349.6 30.003 344.9 32.603 A 13.411 13.411 0 0 0 342.762 34.046 Q 340.2 36.197 340.2 39.003 Q 340.2 44.256 346.258 46.86 A 18.537 18.537 0 0 0 346.6 47.003 Q 353 49.603 367.2 52.403 A 321.909 321.909 0 0 1 378.369 54.885 Q 383.587 56.149 388.039 57.452 A 141.139 141.139 0 0 1 394.5 59.503 Q 405.2 63.203 413.2 71.603 Q 421.2 80.003 421.4 94.403 Q 421.4 118.803 404.9 130.603 A 58.664 58.664 0 0 1 386.311 139.265 Q 375.031 142.403 360.8 142.403 A 155.428 155.428 0 0 1 342.071 141.348 Q 332.613 140.197 324.819 137.789 A 63.49 63.49 0 0 1 310.7 131.603 A 34.971 34.971 0 0 1 294.915 110.279 Q 293.13 103.987 292.852 96.298 A 79.895 79.895 0 0 1 292.8 93.403 L 334.6 93.403 A 31.119 31.119 0 0 0 334.938 98.171 Q 335.95 104.678 340 107.303 A 17.518 17.518 0 0 0 344.305 109.259 Q 348.537 110.586 354.723 110.772 A 68.937 68.937 0 0 0 356.8 110.803 A 64.823 64.823 0 0 0 362.463 110.57 Q 367.177 110.156 370.7 109.003 Q 376.2 107.203 376.2 101.603 A 6.96 6.96 0 0 0 373.251 95.858 Q 372.14 95.004 370.612 94.321 A 17.947 17.947 0 0 0 370.1 94.103 Q 364 91.603 350.2 88.803 Q 333.4 85.203 322.4 81.303 Q 311.4 77.403 303.2 68.403 A 30.259 30.259 0 0 1 296.251 55.057 Q 295 50.018 295 44.003 A 45.776 45.776 0 0 1 296.975 30.161 A 34.454 34.454 0 0 1 312.5 10.703 Q 328.086 1.173 351.049 0.131 A 126.851 126.851 0 0 1 356.8 0.003 A 107.03 107.03 0 0 1 375.278 1.507 Q 389.575 4.015 400.2 10.703 A 36.483 36.483 0 0 1 412.774 23.485 Q 417.394 31.574 417.6 42.403 Z M 1550.6 42.403 L 1550.6 44.803 L 1509.2 44.803 L 1509.2 44.003 Q 1509.2 38.003 1504.8 34.003 Q 1500.4 30.003 1491.4 30.003 Q 1482.6 30.003 1477.9 32.603 A 13.411 13.411 0 0 0 1475.762 34.046 Q 1473.2 36.197 1473.2 39.003 Q 1473.2 44.256 1479.258 46.86 A 18.537 18.537 0 0 0 1479.6 47.003 Q 1486 49.603 1500.2 52.403 A 321.909 321.909 0 0 1 1511.369 54.885 Q 1516.587 56.149 1521.039 57.452 A 141.139 141.139 0 0 1 1527.5 59.503 Q 1538.2 63.203 1546.2 71.603 Q 1554.2 80.003 1554.4 94.403 Q 1554.4 118.803 1537.9 130.603 A 58.664 58.664 0 0 1 1519.311 139.265 Q 1508.031 142.403 1493.8 142.403 A 155.428 155.428 0 0 1 1475.071 141.348 Q 1465.613 140.197 1457.819 137.789 A 63.49 63.49 0 0 1 1443.7 131.603 A 34.971 34.971 0 0 1 1427.915 110.279 Q 1426.13 103.987 1425.852 96.298 A 79.895 79.895 0 0 1 1425.8 93.403 L 1467.6 93.403 A 31.119 31.119 0 0 0 1467.938 98.171 Q 1468.95 104.678 1473 107.303 A 17.518 17.518 0 0 0 1477.305 109.259 Q 1481.537 110.586 1487.723 110.772 A 68.937 68.937 0 0 0 1489.8 110.803 A 64.823 64.823 0 0 0 1495.463 110.57 Q 1500.177 110.156 1503.7 109.003 Q 1509.2 107.203 1509.2 101.603 A 6.96 6.96 0 0 0 1506.251 95.858 Q 1505.14 95.004 1503.612 94.321 A 17.947 17.947 0 0 0 1503.1 94.103 Q 1497 91.603 1483.2 88.803 Q 1466.4 85.203 1455.4 81.303 Q 1444.4 77.403 1436.2 68.403 A 30.259 30.259 0 0 1 1429.251 55.057 Q 1428 50.018 1428 44.003 A 45.776 45.776 0 0 1 1429.975 30.161 A 34.454 34.454 0 0 1 1445.5 10.703 Q 1461.086 1.173 1484.049 0.131 A 126.851 126.851 0 0 1 1489.8 0.003 A 107.03 107.03 0 0 1 1508.278 1.507 Q 1522.575 4.015 1533.2 10.703 A 36.483 36.483 0 0 1 1545.774 23.485 Q 1550.394 31.574 1550.6 42.403 Z M 1158 140.003 L 1119.4 140.003 L 1061.6 73.203 L 1061.6 140.003 L 1021 140.003 L 1021 2.403 L 1059.6 2.403 L 1117.4 70.203 L 1117.4 2.403 L 1158 2.403 L 1158 140.003 Z M 134.4 37.603 L 89.4 37.603 L 89.4 140.003 L 45.2 140.003 L 45.2 37.603 L 0 37.603 L 0 2.403 L 134.4 2.403 L 134.4 37.603 Z M 567.6 37.603 L 522.6 37.603 L 522.6 140.003 L 478.4 140.003 L 478.4 37.603 L 433.2 37.603 L 433.2 2.403 L 567.6 2.403 L 567.6 37.603 Z M 944.418 1.962 A 111.831 111.831 0 0 0 922.8 0.003 A 129.431 129.431 0 0 0 914.812 0.243 Q 884.976 2.088 867.9 18.103 A 54.322 54.322 0 0 0 859.277 28.487 Q 853.198 37.985 850.58 50.515 A 101.214 101.214 0 0 0 848.6 71.203 A 119.336 119.336 0 0 0 848.742 77.077 Q 850.254 107.754 867.9 124.303 A 58.543 58.543 0 0 0 879.153 132.557 Q 888.807 138.022 901.192 140.454 A 112.263 112.263 0 0 0 922.8 142.403 Q 958.4 142.403 977.8 124.203 Q 990.91 111.903 995.161 92.023 A 99.624 99.624 0 0 0 997.2 71.203 A 118.225 118.225 0 0 0 997.086 65.973 Q 995.715 35.01 977.8 18.203 A 58.934 58.934 0 0 0 966.965 10.169 Q 957.116 4.466 944.418 1.962 Z M 1355.418 1.962 A 111.831 111.831 0 0 0 1333.8 0.003 A 129.431 129.431 0 0 0 1325.812 0.243 Q 1295.976 2.088 1278.9 18.103 A 54.322 54.322 0 0 0 1270.277 28.487 Q 1264.198 37.985 1261.58 50.515 A 101.214 101.214 0 0 0 1259.6 71.203 A 119.336 119.336 0 0 0 1259.742 77.077 Q 1261.254 107.754 1278.9 124.303 A 58.543 58.543 0 0 0 1290.153 132.557 Q 1299.807 138.022 1312.192 140.454 A 112.263 112.263 0 0 0 1333.8 142.403 Q 1369.4 142.403 1388.8 124.203 Q 1401.91 111.903 1406.161 92.023 A 99.624 99.624 0 0 0 1408.2 71.203 A 118.225 118.225 0 0 0 1408.086 65.973 Q 1406.715 35.01 1388.8 18.203 A 58.934 58.934 0 0 0 1377.965 10.169 Q 1368.116 4.466 1355.418 1.962 Z M 634 140.003 L 589.8 140.003 L 589.8 2.403 L 634 2.403 L 634 140.003 Z M 1233.8 140.003 L 1189.6 140.003 L 1189.6 2.403 L 1233.8 2.403 L 1233.8 140.003 Z M 893.8 64.803 L 893.8 77.603 Q 893.8 89.762 898.933 97.759 A 27.101 27.101 0 0 0 901.2 100.803 A 23.827 23.827 0 0 0 914.027 108.432 Q 918.03 109.403 922.8 109.403 A 37.544 37.544 0 0 0 931.397 108.477 Q 939.461 106.581 944.5 100.803 Q 951.612 92.648 951.98 79.098 A 55.064 55.064 0 0 0 952 77.603 L 952 64.803 A 46.009 46.009 0 0 0 951.052 55.181 Q 949.334 47.146 944.5 41.603 A 24.219 24.219 0 0 0 931.444 33.94 A 37.497 37.497 0 0 0 922.8 33.003 Q 910.389 33.003 903.172 39.572 A 23.245 23.245 0 0 0 901.2 41.603 A 29.236 29.236 0 0 0 895.12 53.54 Q 893.986 57.919 893.826 63.089 A 55.548 55.548 0 0 0 893.8 64.803 Z M 1304.8 64.803 L 1304.8 77.603 Q 1304.8 89.762 1309.933 97.759 A 27.101 27.101 0 0 0 1312.2 100.803 A 23.827 23.827 0 0 0 1325.027 108.432 Q 1329.03 109.403 1333.8 109.403 A 37.544 37.544 0 0 0 1342.397 108.477 Q 1350.461 106.581 1355.5 100.803 Q 1362.612 92.648 1362.98 79.098 A 55.064 55.064 0 0 0 1363 77.603 L 1363 64.803 A 46.009 46.009 0 0 0 1362.052 55.181 Q 1360.334 47.146 1355.5 41.603 A 24.219 24.219 0 0 0 1342.444 33.94 A 37.497 37.497 0 0 0 1333.8 33.003 Q 1321.389 33.003 1314.172 39.572 A 23.245 23.245 0 0 0 1312.2 41.603 A 29.236 29.236 0 0 0 1306.12 53.54 Q 1304.986 57.919 1304.826 63.089 A 55.548 55.548 0 0 0 1304.8 64.803 Z" vector-effect="non-scaling-stroke" stroke-opacity="0.3"/></g></svg>